<?xml version="1.0" standalone="no"?><!DOCTYPE svg PUBLIC "-//W3C//DTD SVG 1.1//EN" "http://www.w3.org/Graphics/SVG/1.1/DTD/svg11.dtd"><svg t="1555416641015" class="icon" style="" viewBox="0 0 1024 1024" version="1.1" xmlns="http://www.w3.org/2000/svg" p-id="34109" xmlns:xlink="http://www.w3.org/1999/xlink" width="200" height="200"><defs><style type="text/css"></style></defs><path d="M512.1 66.2c-246.6 0-447.2 200.6-447.2 447.2s200.6 447.2 447.2 447.2S959.3 760 959.3 513.4 758.7 66.2 512.1 66.2z m0 864.6c-230.5 0-417.4-186.9-417.4-417.4S281.6 96.1 512.1 96.1 929.5 283 929.5 513.5 742.6 930.8 512.1 930.8z" p-id="34110"></path><path d="M532.7 512.3v-0.5c0-8.6-6.6-15.6-14.8-15.6H369.6c-8.2 0-14.8 6.9-14.8 15.6v0.5c0 8.6 6.6 15.6 14.8 15.6h148.3c8.2 0 14.8-7 14.8-15.6z" p-id="34111"></path><path d="M407.7 718.2m-31.7 0a31.7 31.7 0 1 0 63.4 0 31.7 31.7 0 1 0-63.4 0Z" p-id="34112"></path><path d="M608.5 718.2m-31.7 0a31.7 31.7 0 1 0 63.4 0 31.7 31.7 0 1 0-63.4 0Z" p-id="34113"></path><path d="M615.3 351.9H373l-9.7-45c-1.2-8.7-8.8-14.7-16.9-13.3-8.1 1.4-13.6 9.6-12.3 18.3l10.5 63.8c1.2 8.7 8.2 11.4 16.9 11.4h254c43.4 0 68.2 36.2 60.9 80.4l-18.6 102.4c-3.6 25.3-28.4 39.9-56.4 39.9H391.9c-8.1 0-14.8 9-14.8 17.8s5.5 16.5 13.7 16.5h210.5c41 0 79.5-25.8 85.6-69.1l18.5-101.9c10.4-62.9-27.4-121.2-90.1-121.2z" p-id="34114"></path></svg>