<svg xmlns="http://www.w3.org/2000/svg" viewBox="0 0 1024 1024" enable-background="new 0 0 1024 1024"><style type="text/css">.st0{fill:#666666;}</style><path class="st0" d="M785.7 784.9c-16.7 16.7-43.7 16.7-60.3 0-70.5-70.5-141-141-211.6-211.5l-211.5 211.5c-16.7 16.7-43.7 16.7-60.3 0-16.7-16.6-16.7-43.7 0-60.3l211.5-211.5c-70.5-70.5-141-141-211.5-211.6-16.7-16.6-16.7-43.7 0-60.3 16.7-16.7 43.7-16.7 60.3 0l483.4 483.4c16.7 16.6 16.7 43.6 0 60.3zm-60.3-543.8c16.7-16.7 43.7-16.7 60.3 0 16.7 16.7 16.7 43.7 0 60.3l-113.7 113.7c-16.7 16.7-43.7 16.7-60.3 0-16.7-16.6-16.7-43.7 0-60.3l113.7-113.7z"/></svg>