<svg xmlns="http://www.w3.org/2000/svg" viewBox="0 0 1024 1024" enable-background="new 0 0 1024 1024"><style type="text/css">.st0{fill-rule:evenodd;clip-rule:evenodd;}</style><path class="st0" d="M512 155.8c-196.4 0-356.2 159.8-356.2 356.2 0 196.4 159.8 356.2 356.2 356.2s356.2-159.8 356.2-356.2c0-196.4-159.8-356.2-356.2-356.2zm0 667.9c-171.8 0-311.7-139.8-311.7-311.7s139.9-311.7 311.7-311.7 311.7 139.9 311.7 311.7-139.9 311.7-311.7 311.7zm179.7-416.5c-8.7-8.7-22.8-8.8-31.5-.1l-179.6 178-86.4-86.2c-8.7-8.7-22.8-8.7-31.5 0s-8.7 22.8 0 31.4l100.5 100.2c1.1 1.1 2.2 2 3.4 2.8 8.7 7.2 21.6 6.7 29.8-1.4l195.2-193.5c8.7-8.4 8.8-22.4.1-31.2z"/></svg>