<svg class="icon" viewBox="0 0 1024 1024" xmlns="http://www.w3.org/2000/svg" width="200" height="200"><defs><style type="text/css">@font-face { font-family: rbicon; src: url(&quot;chrome-extension://dipiagiiohfljcicegpgffpbnjmgjcnf/fonts/rbicon.woff2&quot;) format(&quot;woff2&quot;); font-weight: normal; font-style: normal; }</style></defs><path d="M860.606 794.818c62.708-46.847 98.367-114.123 98.367-186.606 0-124.932-107.688-228.429-246.7-244.213-18.196-143.055-157.025-250.767-323.599-250.767-179.532 0-325.594 126.53-325.594 282.054 0 83.858 41.801 161.657 115.205 215.374-4.007 17.577-18.097 54.558-33.921 88.097-5.65 11.97-2.604 26.241 7.435 34.864 5.482 4.711 12.313 7.105 19.175 7.105 5.702 0 11.423-1.657 16.408-5.008 43.099-28.994 97.122-61.827 114.846-68.413 28.042 6.66 57.092 10.038 86.446 10.038 4.738 0 9.487-.106 14.228-.283 34.393 102.412 143.481 177.461 272.389 177.461 25.082 0 49.907-2.835 73.893-8.426 15.938 6.406 60.865 33.806 96.595 57.835 4.984 3.351 10.71 5.008 16.412 5.008 6.86 0 13.693-2.394 19.175-7.105 10.04-8.627 13.08-22.9 7.43-34.868-12.668-26.841-24.178-56.61-28.19-72.146zm-471.931-176.307c-26.48 0-52.621-3.241-77.699-9.637-8.704-2.22-20.735-5.278-78.948 28.728 8.795-29.173 10.528-54.35-9.791-67.965-63.757-42.723-100.325-106.271-100.325-174.349 0-123.085 119.667-223.224 266.763-223.224 133.45 0 244.904 81.28 263.931 190.633-145.855 10.068-260.996 116.334-260.996 245.517 0 3.439.103 6.858.265 10.264-1.067.009-2.135.034-3.2.034zm427.191 135.919c-17.15 11.486-18.16 30.708-12.754 53.205-31.211-17.527-45.367-21.325-53.828-21.325-3.471 0-5.984.636-8.321 1.235-21.186 5.405-43.285 8.143-65.672 8.143-123.986 0-224.852-84.099-224.852-187.477 0-103.374 100.866-187.475 224.852-187.475s224.852 84.099 224.852 187.475c-.001 57.034-30.723 110.33-84.277 146.218zm-569.477-431.874a39.957 36.191 0 1 0 81.776 0 39.957 36.191 0 1 0-81.776 0zm212.49 0a39.957 36.191 0 1 0 81.776 0 39.957 36.191 0 1 0-81.776 0zm107.281 207.811a32.066 29.044 0 1 0 65.627 0 32.066 29.044 0 1 0-65.627 0zm163.324 0a32.066 29.044 0 1 0 65.627 0 32.066 29.044 0 1 0-65.627 0z" fill="#515151"/></svg>